<svg width="512" height="512" viewBox="0 0 512 512" xmlns="http://www.w3.org/2000/svg">
  <defs>
    <linearGradient id="bg" x1="0" y1="0" x2="1" y2="1">
      <stop offset="0" stop-color="#0EA5A4"/>
      <stop offset="1" stop-color="#15803D"/>
    </linearGradient>
  </defs>

  <!-- 背景圆角方块 -->
  <rect x="0" y="0" width="512" height="512" rx="112" fill="url(#bg)"/>

  <!-- 叶片 -->
  <path d="M256 420 C 174 332 174 180 256 92 C 338 180 338 332 256 420 Z" fill="#FFFFFF"/>

  <!-- 主脉 + 侧脉(用背景青色画在白叶上) -->
  <g stroke="#0F766E" stroke-width="9" stroke-linecap="round" fill="none" opacity="0.85">
    <path d="M256 398 L256 118"/>
    <path d="M256 322 L206 298"/>
    <path d="M256 322 L306 298"/>
    <path d="M256 256 L198 236"/>
    <path d="M256 256 L314 236"/>
    <path d="M256 192 L212 174"/>
    <path d="M256 192 L300 174"/>
  </g>

  <!-- 组学数据节点(珊瑚色圆点) -->
  <g fill="#FB7185">
    <circle cx="256" cy="112" r="13"/>
    <circle cx="206" cy="298" r="10"/>
    <circle cx="314" cy="236" r="10"/>
    <circle cx="300" cy="174" r="9"/>
    <circle cx="198" cy="236" r="8"/>
  </g>
</svg>
